<svg xmlns="http://www.w3.org/2000/svg" width="61" height="77" viewBox="0 0 61 77">
    <g fill="#4E0091" fill-rule="nonzero">
        <path d="M56.575 9.384H4.425A1.203 1.203 0 0 1 3.23 8.181V1.504C3.23.842 3.768.3 4.425.3h52.15c.657 0 1.196.541 1.196 1.203V8.18c0 .662-.539 1.203-1.196 1.203zM5.622 6.978h49.756V2.707H5.622v4.271zM37.975 57.51h-14.95a1.203 1.203 0 0 1-1.197-1.204v-5.895c0-.662.539-1.203 1.197-1.203h14.95c.658 0 1.197.541 1.197 1.203v5.895c0 .662-.539 1.203-1.197 1.203zm-13.754-2.407h12.558v-3.489H24.221v3.49z"/>
        <path d="M37.975 57.51h-14.95a1.203 1.203 0 0 1-1.197-1.204v-5.895c0-.662.539-1.203 1.197-1.203h14.95c.658 0 1.197.541 1.197 1.203v5.895c0 .662-.539 1.203-1.197 1.203zm-13.754-2.407h12.558v-3.489H24.221v3.49z"/>
        <path d="M52.687 76.7H8.313c-.36 0-.718-.181-.957-.482-.24-.3-.3-.662-.24-1.023l4.665-19.19c.12-.54.598-.902 1.137-.902h35.045c.538 0 1.016.361 1.136.902l4.665 19.19c.06.361 0 .722-.24 1.023-.12.3-.478.481-.837.481zm-42.88-2.407h41.325l-4.066-16.784H13.934L9.808 74.293z"/>
        <path d="M46.587 71.285H14.413a.543.543 0 0 1-.479-.24c-.12-.12-.18-.361-.12-.542l2.333-9.565c.06-.24.3-.481.598-.481h27.51c.299 0 .538.18.598.481l2.332 9.565c.06.18 0 .361-.12.542a.543.543 0 0 1-.478.24zM15.19 70.082h30.68l-2.034-8.362H17.224l-2.034 8.362zM30.5 45.057c-12.619 0-22.905-10.347-22.905-23.04V8.181c0-.661.538-1.203 1.196-1.203H52.27c.657 0 1.196.542 1.196 1.203v13.836c-.06 12.693-10.346 23.04-22.965 23.04zM9.987 9.384v12.633c0 11.37 9.21 20.634 20.513 20.634s20.513-9.264 20.513-20.634V9.384H9.987z"/>
        <path d="M30.5 39.643c-.359 0-.598-.24-.598-.602 0-.36.24-.601.598-.601 9.03 0 16.326-7.4 16.326-16.423v-9.023c0-.361.24-.602.599-.602.358 0 .598.24.598.602v9.023c0 9.745-7.835 17.626-17.523 17.626zM34.447 51.614h-7.894a1.203 1.203 0 0 1-1.196-1.203v-6.918c0-.361.18-.722.418-.902.3-.241.658-.301.957-.241 2.452.481 5.024.481 7.476 0 .359-.06.717 0 .957.24.299.241.418.542.418.903v6.918c.06.722-.478 1.203-1.136 1.203zm-6.698-2.406h5.502v-4.331c-1.854.24-3.708.24-5.502 0v4.33zM49.637 33.567c-.299 0-.598-.12-.837-.36a1.224 1.224 0 0 1-.06-1.685C59.026 20.634 58.787 16.844 58.19 15.7c-.898-1.745-4.606-1.564-5.862-1.384-.657.12-1.255-.36-1.375-1.022-.12-.662.359-1.264 1.017-1.384.657-.12 6.458-.902 8.312 2.647 1.854 3.549-1.375 9.625-9.867 18.588-.12.3-.419.421-.778.421zM11.363 33.567c-.3 0-.658-.12-.838-.36-8.551-8.964-11.78-15.04-9.927-18.589 1.854-3.55 7.655-2.767 8.313-2.647.658.12 1.076.722 1.016 1.384-.12.661-.717 1.082-1.375 1.022-1.256-.18-4.964-.36-5.86 1.384-.599 1.143-.838 4.933 9.448 15.821.479.481.419 1.263-.06 1.684-.12.18-.418.301-.717.301z"/>
    </g>
</svg>
