<svg xmlns="http://www.w3.org/2000/svg" width="24" height="17" viewBox="0 0 24 17">
    <g fill="#FFF" fill-rule="evenodd">
        <path d="M10.5 12H5.148l-1.155 2.697a.5.5 0 1 1-.919-.394l1.285-3a.5.5 0 0 1 .46-.303H10.5a.5.5 0 0 1 0 1zm5.41 4.187l-2.431-5.671A2.497 2.497 0 0 0 11.181 9H4.819a2.497 2.497 0 0 0-2.298 1.516l-2.48 5.787a.496.496 0 0 0 .042.472A.497.497 0 0 0 .5 17h15.02a.5.5 0 0 0 .39-.813zM14.5 3H9.115L7.959 5.697a.498.498 0 0 1-.656.262.498.498 0 0 1-.262-.656l1.285-3A.5.5 0 0 1 8.786 2H14.5a.5.5 0 0 1 0 1zm5.41 4.187l-2.431-5.671A2.497 2.497 0 0 0 15.181 0H8.819a2.497 2.497 0 0 0-2.298 1.516l-2.48 5.787a.496.496 0 0 0 .042.472A.497.497 0 0 0 4.5 8h15.02a.5.5 0 0 0 .39-.813zM23.959 16.303l-2.48-5.788A2.499 2.499 0 0 0 19.181 9h-4.543a.499.499 0 0 0-.433.75c.069.12.138.242.193.371l.377.879H18.5a.5.5 0 0 1 0 1h-3.296l1.675 3.909c.067.157.102.342.106.565.001.065.03.164.056.224A.5.5 0 0 0 17.5 17h6a.497.497 0 0 0 .417-.225.496.496 0 0 0 .042-.472"/>
    </g>
</svg>
