<svg xmlns="http://www.w3.org/2000/svg" width="19" height="24" viewBox="0 0 19 24">
    <g fill="#FFF" fill-rule="evenodd">
        <path d="M9.999 6.5v.533c1.628.161 2.883 1.087 2.997 2.287a.504.504 0 0 1-.45.55.496.496 0 0 1-.545-.45c-.065-.68-.922-1.25-2.002-1.39v3.05c.98.17 3 .67 3 2.42 0 1.28-1.285 2.29-3 2.46v.54c0 .28-.224.5-.5.5-.277 0-.5-.22-.5-.5v-.53c-1.629-.16-2.884-1.09-2.998-2.3a.5.5 0 0 1 .995-.09c.065.68.922 1.25 2.003 1.39v-3.05c-.984-.17-3-.67-3-2.42 0-1.28 1.284-2.294 3-2.465V6.5a.5.5 0 1 1 1 0zM3 5.943V13.5c0 1.78 3.441 6 6.5 7.45 3.059-1.45 6.5-5.67 6.5-7.45V5.943c-2.291-.313-4.62-1.153-6.5-2.346C7.62 4.79 5.291 5.63 3 5.943z"/>
        <path d="M6.999 9.5c0 .89 1.224 1.25 2 1.4V8.03c-1.126.15-2 .76-2 1.47M11.999 13.5c0-.89-1.226-1.25-2-1.4v2.87c1.125-.15 2-.76 2-1.47"/>
        <path d="M17 13.5c0 2.41-3.957 7-7.3 8.46a.465.465 0 0 1-.2.04.465.465 0 0 1-.2-.04C5.957 20.5 2 15.91 2 13.5v-8a.5.5 0 0 1 .447-.497c2.356-.252 4.888-1.155 6.775-2.419a.502.502 0 0 1 .556 0c1.887 1.264 4.419 2.167 6.775 2.42A.5.5 0 0 1 17 5.5v8zM18.5 3c-2.672 0-6.54-.748-8.646-2.854a.502.502 0 0 0-.708 0C7.04 2.252 3.172 3 .5 3a.5.5 0 0 0-.5.5v10c0 3.75 5.351 9.17 9.345 10.48.051.01.103.02.155.02.052 0 .104-.01.155-.02C13.649 22.67 19 17.25 19 13.5v-10a.5.5 0 0 0-.5-.5z"/>
    </g>
</svg>
