<svg xmlns="http://www.w3.org/2000/svg" width="77" height="77" viewBox="0 0 77 77">
    <g fill="#4E0091" fill-rule="nonzero">
        <path d="M59.013 67.074H17.987a8.061 8.061 0 0 1-8.061-8.06V17.986c0-4.452 3.61-8.061 8.06-8.061h40.967c4.452 0 8.061 3.61 8.061 8.06v40.967a7.986 7.986 0 0 1-8 8.121zM17.987 12.332a5.648 5.648 0 0 0-5.655 5.655v40.966a5.648 5.648 0 0 0 5.655 5.655h40.966a5.648 5.648 0 0 0 5.655-5.655V17.987a5.648 5.648 0 0 0-5.655-5.655H17.987z"/>
        <path d="M59.073 59.675H17.927c-.361 0-.602-.24-.602-.602V17.927c0-.361.24-.602.602-.602h41.146c.361 0 .602.24.602.602v41.146c0 .301-.3.602-.602.602zm-40.545-1.203h39.944V18.528H18.528v39.944z"/>
        <path d="M23.16 34.59c-.36 0-.601-.24-.601-.602V23.16c0-.36.24-.601.601-.601h10.828c.361 0 .602.24.602.601s-.24.602-.602.602H23.762v10.226c0 .301-.301.602-.602.602zM33.988 54.441H23.16c-.36 0-.601-.24-.601-.601V43.012c0-.361.24-.602.601-.602s.602.24.602.602v10.226h10.226c.361 0 .602.24.602.602 0 .36-.3.601-.602.601zM53.84 54.441H43.012c-.361 0-.602-.24-.602-.601s.24-.602.602-.602h10.226V43.012c0-.361.24-.602.602-.602.36 0 .601.24.601.602V53.84c0 .36-.24.601-.601.601zM53.84 34.59c-.361 0-.602-.24-.602-.602V23.762H43.012c-.361 0-.602-.24-.602-.602 0-.36.24-.601.602-.601H53.84c.36 0 .601.24.601.601v10.828c0 .301-.24.602-.601.602zM20.273 8.662A1.207 1.207 0 0 1 19.07 7.46V1.504C19.07.842 19.61.3 20.273.3c.661 0 1.203.541 1.203 1.203v5.955c0 .662-.542 1.204-1.203 1.204zM32.424 8.662a1.207 1.207 0 0 1-1.203-1.203V1.504c0-.662.541-1.203 1.203-1.203s1.203.541 1.203 1.203v5.955c0 .662-.541 1.204-1.203 1.204zM44.576 8.662a1.207 1.207 0 0 1-1.203-1.203V1.504c0-.662.541-1.203 1.203-1.203.661 0 1.203.541 1.203 1.203v5.955c0 .662-.542 1.204-1.203 1.204zM56.727 8.662a1.207 1.207 0 0 1-1.203-1.203V1.504c0-.662.542-1.203 1.203-1.203.662 0 1.203.541 1.203 1.203v5.955c0 .662-.54 1.204-1.203 1.204zM20.273 76.7a1.207 1.207 0 0 1-1.203-1.204v-5.955c0-.662.54-1.203 1.203-1.203.661 0 1.203.54 1.203 1.203v5.955c0 .662-.542 1.203-1.203 1.203zM32.424 76.7a1.207 1.207 0 0 1-1.203-1.204v-5.955c0-.662.541-1.203 1.203-1.203s1.203.54 1.203 1.203v5.955c0 .662-.541 1.203-1.203 1.203zM44.576 76.7a1.207 1.207 0 0 1-1.203-1.204v-5.955c0-.662.541-1.203 1.203-1.203.661 0 1.203.54 1.203 1.203v5.955c0 .662-.542 1.203-1.203 1.203zM56.727 76.7a1.207 1.207 0 0 1-1.203-1.204v-5.955c0-.662.542-1.203 1.203-1.203.662 0 1.203.54 1.203 1.203v5.955c0 .662-.54 1.203-1.203 1.203zM75.496 21.476h-5.955a1.207 1.207 0 0 1-1.203-1.203c0-.662.54-1.203 1.203-1.203h5.955c.662 0 1.203.54 1.203 1.203 0 .661-.541 1.203-1.203 1.203zM75.496 33.627h-5.955a1.207 1.207 0 0 1-1.203-1.203c0-.662.54-1.203 1.203-1.203h5.955c.662 0 1.203.541 1.203 1.203s-.541 1.203-1.203 1.203zM75.496 45.779h-5.955a1.207 1.207 0 0 1-1.203-1.203c0-.662.54-1.203 1.203-1.203h5.955c.662 0 1.203.541 1.203 1.203 0 .661-.541 1.203-1.203 1.203zM75.496 57.93h-5.955a1.207 1.207 0 0 1-1.203-1.203c0-.661.54-1.203 1.203-1.203h5.955c.662 0 1.203.542 1.203 1.203 0 .662-.541 1.203-1.203 1.203zM7.46 21.476H1.503A1.207 1.207 0 0 1 .3 20.273c0-.662.541-1.203 1.203-1.203h5.955c.662 0 1.204.54 1.204 1.203 0 .661-.542 1.203-1.204 1.203zM7.46 33.627H1.503A1.207 1.207 0 0 1 .3 32.424c0-.662.541-1.203 1.203-1.203h5.955c.662 0 1.204.541 1.204 1.203s-.542 1.203-1.204 1.203zM7.46 45.779H1.503A1.207 1.207 0 0 1 .3 44.576c0-.662.541-1.203 1.203-1.203h5.955c.662 0 1.204.541 1.204 1.203 0 .661-.542 1.203-1.204 1.203zM7.46 57.93H1.503A1.207 1.207 0 0 1 .3 56.727c0-.661.541-1.203 1.203-1.203h5.955c.662 0 1.204.542 1.204 1.203 0 .662-.542 1.203-1.204 1.203z"/>
    </g>
</svg>
