<svg xmlns="http://www.w3.org/2000/svg" width="90" height="84" viewBox="0 0 90 84">
    <g fill="#FFF" fill-rule="nonzero">
        <path d="M73.434 83h15.132c.789 0 1.434-.63 1.434-1.4V1.4c0-.77-.645-1.4-1.434-1.4H73.434C72.645 0 72 .63 72 1.4v80.2c0 .77.645 1.4 1.434 1.4zm13.829-3h-12V3h12v77z"/>
        <path d="M78.696 77c.423 0 .705-.278.705-.696V8.392h2.887c.422 0 .704-.279.704-.696 0-.418-.282-.696-.704-.696h-3.592c-.422 0-.704.278-.704.696v68.608c0 .348.352.696.704.696zM49.434 83h15.132c.789 0 1.434-.628 1.434-1.395v-62.21c0-.767-.645-1.395-1.434-1.395H49.434c-.789 0-1.434.628-1.434 1.395v62.21c0 .767.645 1.395 1.434 1.395zm13.829-3h-12V21h12v59z"/>
        <path d="M54.696 78c.423 0 .705-.282.705-.705V26.41h2.887c.422 0 .704-.282.704-.705S58.71 25 58.288 25h-3.592c-.422 0-.704.282-.704.705v51.59c0 .353.352.705.704.705zM25.434 83h15.132c.789 0 1.434-.627 1.434-1.393V34.393c0-.766-.645-1.393-1.434-1.393H25.434c-.789 0-1.434.627-1.434 1.393v47.214c0 .766.645 1.393 1.434 1.393zm13.829-3h-12V36h12v44z"/>
        <path d="M31.696 78c.423 0 .705-.283.705-.706V41.413h2.887c.422 0 .704-.283.704-.707 0-.423-.282-.706-.704-.706h-3.592c-.422 0-.704.283-.704.706v36.588c0 .353.282.706.704.706zM1.434 84h15.132c.789 0 1.434-.635 1.434-1.41V47.41c0-.775-.645-1.41-1.434-1.41H1.434C.645 46 0 46.635 0 47.41v35.18C0 83.365.645 84 1.434 84zm13.829-3h-12V49h12v32z"/>
        <path d="M7.696 77c.423 0 .705-.279.705-.696V53.393h2.887c.422 0 .704-.279.704-.697 0-.417-.282-.696-.704-.696H7.696c-.422 0-.704.279-.704.696v23.608c0 .348.282.696.704.696z"/>
    </g>
</svg>
