<svg xmlns="http://www.w3.org/2000/svg" width="84" height="84" viewBox="0 0 84 84">
    <g fill="#FFF" fill-rule="nonzero">
        <path d="M70.612 45.806c-.524 0-1.05-.328-1.246-.918a4.945 4.945 0 0 0-4.725-3.413H12.009c-.59 0-1.115-.394-1.247-.984L6.497 23.23c-.46-1.969-.197-4.003.853-5.71 1.05-1.705 2.69-2.952 4.66-3.412L67.068.525c4.069-.984 8.203 1.444 9.187 5.512l7.153 28.875c.46 1.97.197 4.004-.853 5.71-1.05 1.706-2.69 2.953-4.66 3.412l-6.955 1.707c-.132.065-.197.065-.329.065zM13.06 38.85h51.582c2.887 0 5.447 1.64 6.759 4.134l5.906-1.443c1.313-.328 2.363-1.116 3.085-2.232.656-1.115.853-2.428.59-3.74L73.828 6.694c-.656-2.625-3.347-4.266-6.037-3.61L12.666 16.67c-1.313.328-2.363 1.115-3.085 2.231-.656 1.116-.853 2.428-.59 3.74l4.068 16.21z"/>
        <path d="M64.64 83.672H7.876c-4.2 0-7.547-3.413-7.547-7.547V46.397c0-4.2 3.413-7.547 7.547-7.547h56.766c3.28 0 6.168 2.1 7.218 5.25a6.76 6.76 0 0 1 .394 2.297v29.728c0 4.134-3.412 7.547-7.612 7.547zM7.876 41.475a4.915 4.915 0 0 0-4.922 4.922v29.728a4.915 4.915 0 0 0 4.922 4.922h56.766a4.915 4.915 0 0 0 4.921-4.922V46.397c0-.525-.065-1.05-.262-1.51a4.945 4.945 0 0 0-4.725-3.412h-56.7zM11.419 38.39c-.263 0-.59-.196-.657-.524L8.006 26.709c-.065-.197 0-.328.066-.525.066-.13.262-.262.394-.328L75.73 9.32c.328-.066.722.131.788.46l2.756 11.155c.066.197 0 .328-.066.525-.065.132-.262.263-.393.329l-67.2 16.603h-.197zM9.45 27.039l2.494 9.909 65.953-16.275-2.494-9.91L9.45 27.038z"/>
        <path d="M20.606 68.447H9.844c-.394 0-.656-.263-.656-.656V55.256c0-.394.262-.656.656-.656h10.762c.394 0 .656.262.656.656v12.535c0 .393-.262.656-.656.656zM10.5 67.134h9.45V55.913H10.5v11.221zM58.472 73.763H32.616c-.394 0-.657-.263-.657-.657 0-.393.263-.656.657-.656h25.856c.394 0 .656.263.656.656 0 .394-.262.657-.656.657z"/>
    </g>
</svg>
