<svg xmlns="http://www.w3.org/2000/svg" width="77" height="77" viewBox="0 0 77 77">
    <g fill="#4E0091" fill-rule="nonzero">
        <path d="M15.64 33.447c-.3 0-.6-.12-.842-.361L.662 18.949c-.301-.3-.421-.782-.301-1.203.12-.421.481-.722.902-.842l13.535-3.068c.422-.06.843.06 1.143.3l14.137 14.137c.3.301.421.782.3 1.204-.12.42-.48.721-.901.842L15.94 33.387c-.12.06-.24.06-.3.06zM3.91 18.829L16.002 30.92l10.768-2.406-12.092-12.151L3.91 18.829z"/>
        <path d="M29.176 30.379c-.301 0-.602-.12-.842-.361L14.197 15.941c-.3-.3-.421-.721-.3-1.143l3.067-13.535c.12-.42.421-.782.842-.902s.903 0 1.203.3l14.077 14.137c.3.301.421.722.3 1.143L30.32 29.477c-.12.42-.421.782-.842.902h-.301zm-12.813-15.7l12.09 12.09 2.407-10.767L18.83 3.91l-2.466 10.768z"/>
        <path d="M58.773 66.352h-.241a7.446 7.446 0 0 1-5.414-2.526L23.942 30.98c-.3-.3-.36-.782-.24-1.143a1.1 1.1 0 0 1 .902-.782l3.61-.842.841-3.61c.12-.42.422-.721.782-.901.422-.12.843-.06 1.143.24l32.846 29.236a7.446 7.446 0 0 1 2.526 5.414 7.526 7.526 0 0 1-2.225 5.595c-1.444 1.383-3.309 2.165-5.354 2.165zM27.07 30.92l27.853 31.342c.962 1.083 2.286 1.684 3.73 1.744 1.443.06 2.767-.481 3.79-1.504 1.022-1.022 1.563-2.346 1.503-3.79-.06-1.443-.662-2.767-1.744-3.73L30.86 27.07l-.541 2.346c-.12.482-.482.782-.903.903l-2.346.601z"/>
        <path d="M75.496 76.7c-.3 0-.601-.121-.842-.362L62.262 63.946a1.163 1.163 0 0 1 0-1.684 1.163 1.163 0 0 1 1.684 0l12.392 12.392a1.163 1.163 0 0 1 0 1.684c-.24.24-.541.361-.842.361z"/>
    </g>
</svg>
