<svg xmlns="http://www.w3.org/2000/svg" width="58" height="84" viewBox="0 0 58 84">
    <g fill="#FFF" fill-rule="nonzero">
        <path d="M56.044 83.672H1.706c-.722 0-1.312-.59-1.312-1.313V14.175c0-.722.59-1.313 1.312-1.313h13.978c.722 0 1.313.591 1.313 1.313s-.59 1.313-1.313 1.313H3.02v65.559H54.73v-65.56H42.066c-.722 0-1.313-.59-1.313-1.312 0-.722.59-1.313 1.313-1.313h13.978c.722 0 1.312.591 1.312 1.313v68.184c0 .722-.59 1.313-1.312 1.313z"/>
        <path d="M51.647 78.619H6.103c-.394 0-.656-.263-.656-.656V18.572c0-.394.262-.656.656-.656h9.581c.394 0 .657.262.657.656s-.263.656-.657.656H6.76v58.078h44.232V19.228h-9.122c-.394 0-.657-.262-.657-.656s.263-.656.657-.656h9.778c.394 0 .656.262.656.656v59.39c0 .394-.262.657-.656.657z"/>
        <path d="M42 23.363H15.75c-.722 0-1.313-.591-1.313-1.313V10.566c0-.722.591-1.313 1.313-1.313H42c.722 0 1.313.59 1.313 1.313V22.05c0 .722-.526 1.313-1.313 1.313zm-24.938-2.625h23.625v-8.86H17.064v8.86z"/>
        <path d="M28.875 11.616c-3.084 0-5.644-2.494-5.644-5.644 0-3.085 2.494-5.644 5.644-5.644 3.084 0 5.644 2.494 5.644 5.644 0 3.084-2.56 5.644-5.644 5.644zm0-8.663c-1.64 0-3.019 1.378-3.019 3.019 0 1.64 1.378 3.019 3.019 3.019 1.64 0 3.019-1.378 3.019-3.02 0-1.64-1.378-3.018-3.019-3.018zM42 37.538H15.75c-.394 0-.656-.263-.656-.657s.262-.656.656-.656H42c.394 0 .656.262.656.656s-.262.657-.656.657zM42 50.86H15.75c-.394 0-.656-.263-.656-.657s.262-.656.656-.656H42c.394 0 .656.262.656.656a.658.658 0 0 1-.656.656zM42 64.181H15.75c-.394 0-.656-.262-.656-.656s.262-.656.656-.656H42c.394 0 .656.262.656.656s-.262.656-.656.656z"/>
    </g>
</svg>
