<svg xmlns="http://www.w3.org/2000/svg" width="82" height="67" viewBox="0 0 82 67">
    <path fill="#DEDCE6" fill-rule="nonzero" d="M0 49.621C0 41.053 2.142 32.19 6.426 23.03 10.71 13.87 16.589 6.281 24.062.266l14.493 9.843c-4.466 6.198-7.793 12.465-9.98 18.8-2.188 6.334-3.282 13.101-3.282 20.302v16.953H0V49.621zm43.203 0c0-8.568 2.142-17.432 6.426-26.592C53.913 13.87 59.792 6.281 67.266.266l14.492 9.843c-4.466 6.198-7.793 12.465-9.98 18.8-2.188 6.334-3.282 13.101-3.282 20.302v16.953H43.203V49.621z"/>
</svg>
