<svg xmlns="http://www.w3.org/2000/svg" width="663" height="688" viewBox="0 0 663 688">
    <g fill="none" fill-rule="evenodd">
        <path stroke="#000" stroke-linejoin="round" stroke-width="4" d="M11.815 686.381l71.35-70.784 132.085-29.11 43.668-19.538 51.64-87.375-6.474-93.615 62.287-106.342 94.867-12.741 87.088-120.75 34.513-53.857 16.047 13.55 57.942-87.593" opacity=".05"/>
        <path stroke="#2ED47B" stroke-linejoin="round" stroke-width="3" d="M1.815 686.381l74.712-83.69 133.406-26 43.152-22.5 49.973-79-6.23-95.168 63-108.318 95.5-13.244 88-123.044 34.893-54.866 16.107 13.73 62.866-88.057"/>
        <path fill="#2ED47B" fill-rule="nonzero" d="M661.146.69h-.158c-2.808.13-5.606.27-8.414.4-.376.02-.89.04-1.295.449-.129.13-.228.28-.307.459-.415.907.168 1.496.445 1.775l.702.718c.485.5.979.998 1.473 1.487l3.896 3.92 2.165 2.174c.257.26.613.619 1.157.619.228 0 .455-.06.692-.19.158-.09.297-.19.415-.309.426-.429.505-.977.525-1.406.079-1.836.168-3.671.257-5.517l.128-2.763c.03-.578-1.127-1.815-1.68-1.815z"/>
    </g>
</svg>
