<svg xmlns="http://www.w3.org/2000/svg" width="289" height="642" viewBox="0 0 289 642">
    <g fill="none" fill-rule="nonzero" stroke="#C9C5D5" stroke-linecap="square">
        <path d="M.988 601.19h23.387"/>
        <path d="M.988 641.19h23.387" opacity=".05"/>
        <path d="M.988 591.19h23.387"/>
        <path d="M.988 631.19h23.387" opacity=".3"/>
        <path d="M.988 581.19h23.387"/>
        <path d="M.988 621.19h23.387" opacity=".5"/>
        <path d="M.988 571.19h23.387"/>
        <path d="M.988 611.19h23.387" opacity=".7"/>
        <path d="M.988 561.19h23.387"/>
        <path d="M.988 551.19h42.254" opacity=".6"/>
        <path d="M.988 541.19h23.387M.988 531.19h23.387M.988 521.19h23.387M.988 511.19h23.387M1 501.19h24M.988 491.19h23.387M.988 481.19h23.387M1 471.19h24M.988 461.19h23.387"/>
        <path d="M.988 451.19h118.301" opacity=".6"/>
        <path d="M.988 441.19h23.387M.988 431.19h23.387M.988 421.19h23.387M.988 411.19h23.387M.988 401.19h23.387M.988 391.19h23.387M.988 381.19h23.387M.988 371.19h23.387M.988 361.19h23.387M.988 351.19h23.387M.988 341.19h23.387M.988 331.19h23.387M.988 321.19h23.387M.988 311.19h23.387"/>
        <path d="M.988 301.19H160.66" opacity=".6"/>
        <path d="M.988 291.19h23.387M.988 281.19h23.387M.988 271.19h23.387M.988 261.19h23.387M.988 251.19h23.387M.988 241.19h23.387M1 231.19h24M.988 221.19h23.387M.988 211.19h23.387M.988 201.19h23.387M.988 191.19h23.387M.988 181.19h23.387"/>
        <path d="M.988 171.19h287.477" opacity=".6"/>
        <path d="M.988 161.19h23.387M.988 151.19h23.387M.988 141.19h23.387M.988 131.19h23.387M.988 121.19h23.387M.988 111.19h23.387M.988 101.19h23.387M.988 91.19h23.387M.988 81.19h23.387M.988 71.19h23.387M.988 61.19h23.387M.988 51.19h23.387"/>
        <path d="M.988 41.19h23.387" opacity=".7"/>
        <path d="M.988 31.19h23.387" opacity=".5"/>
        <path d="M.988 21.19h23.387" opacity=".3"/>
        <path d="M.988 11.19h23.387" opacity=".1"/>
        <path d="M.988 1.19h23.387" opacity=".05"/>
    </g>
</svg>
