<svg xmlns="http://www.w3.org/2000/svg" xmlns:xlink="http://www.w3.org/1999/xlink" width="190" height="45" viewBox="0 0 190 45">
    <defs>
        <linearGradient id="b" x1="-49.85%" x2="123.295%" y1="0%" y2="100%">
            <stop offset="0%" stop-color="#FAD961"/>
            <stop offset="100%" stop-color="#F76B1C"/>
        </linearGradient>
        <path id="a" d="M22.5 45C34.926 45 45 34.926 45 22.5S34.926 0 22.5 0 0 10.074 0 22.5 10.074 45 22.5 45zm-9.9-19.513V9.9h12.99c4.848 0 8.144 2.61 8.144 7.092 0 2.962-1.28 4.598-2.637 5.573v.155c2.21 1.053 3.025 5.61 3.025 9.195 0 4.988-.308-6.428-5.621-6.428H12.6zm6.05-5.066h6.049c2.055 0 2.87-1.09 2.87-2.572 0-1.48-.815-2.571-2.87-2.571h-6.05v5.143zM22.5 33.3a2.7 2.7 0 1 1 0-5.4 2.7 2.7 0 0 1 0 5.4z"/>
        <linearGradient id="c" x1="-30.508%" x2="172.855%" y1="0%" y2="85.867%">
            <stop offset="0%" stop-color="#FAD961"/>
            <stop offset="100%" stop-color="#F76B1C"/>
        </linearGradient>
    </defs>
    <g fill="none" fill-rule="evenodd">
        <path fill="#FFF" fill-rule="nonzero" d="M59.538 31.75a.523.523 0 0 1-.391-.15.547.547 0 0 1-.147-.4V14.825c0-.167.049-.304.147-.412a.502.502 0 0 1 .391-.163h6.387c1.615 0 2.838.425 3.67 1.275.832.85 1.248 1.917 1.248 3.2 0 .983-.212 1.792-.636 2.425-.425.633-.93 1.092-1.517 1.375.701.367 1.292.925 1.774 1.675.48.75.721 1.617.721 2.6 0 .867-.2 1.68-.6 2.438a4.596 4.596 0 0 1-1.749 1.825c-.766.458-1.68.687-2.74.687h-6.558zm6.069-9.9c1.207 0 2.124-.27 2.752-.813.628-.541.942-1.312.942-2.312 0-.983-.314-1.725-.942-2.225-.628-.5-1.545-.75-2.752-.75h-5.065v6.1h5.065zm.244 8.4c1.191 0 2.12-.32 2.79-.962.668-.642 1.003-1.471 1.003-2.488 0-1.033-.335-1.867-1.003-2.5-.67-.633-1.599-.95-2.79-.95h-5.31v6.9h5.31zm8.865-14.175a.523.523 0 0 1-.391-.15.547.547 0 0 1-.147-.4v-.95c0-.167.049-.304.147-.412a.502.502 0 0 1 .391-.163h.93a.54.54 0 0 1 .404.162.565.565 0 0 1 .159.413v.95c0 .167-.053.3-.16.4-.105.1-.24.15-.403.15h-.93zm.27 15.675a.523.523 0 0 1-.392-.15.547.547 0 0 1-.147-.4V19.3c0-.167.05-.3.147-.4.098-.1.228-.15.391-.15h.416c.164 0 .294.05.392.15.098.1.147.233.147.4v11.9c0 .167-.05.3-.147.4a.523.523 0 0 1-.392.15h-.416zm8.987 0c-1.207 0-2.064-.37-2.57-1.113-.505-.741-.758-1.762-.758-3.062V20.2h-1.908a.523.523 0 0 1-.392-.15.547.547 0 0 1-.147-.4v-.35c0-.167.05-.3.147-.4.098-.1.228-.15.392-.15h1.908v-4.2c0-.167.05-.3.147-.4.098-.1.228-.15.391-.15h.416c.164 0 .294.05.392.15.098.1.147.233.147.4v4.2h3.034c.163 0 .293.05.391.15.098.1.147.233.147.4v.35c0 .167-.049.3-.147.4a.523.523 0 0 1-.391.15h-3.034v7.275c0 .933.15 1.637.452 2.112.302.476.804.713 1.505.713h1.322c.163 0 .293.05.391.15.098.1.147.233.147.4v.35c0 .167-.05.3-.147.4a.523.523 0 0 1-.391.15h-1.444zm9.11.25c-1.697 0-3.01-.504-3.94-1.512-.93-1.009-1.419-2.421-1.468-4.238l-.024-1 .024-1c.049-1.817.538-3.23 1.468-4.238.93-1.008 2.243-1.512 3.94-1.512 1.076 0 1.994.196 2.752.587.759.392 1.326.892 1.7 1.5.376.609.58 1.238.613 1.888a.444.444 0 0 1-.147.387.553.553 0 0 1-.392.163h-.342c-.163 0-.282-.037-.355-.112-.073-.076-.15-.213-.232-.413-.327-.917-.783-1.57-1.37-1.962-.588-.392-1.33-.588-2.227-.588-1.175 0-2.109.362-2.802 1.088-.693.725-1.064 1.837-1.113 3.337l-.025.875.025.875c.049 1.5.42 2.612 1.113 3.337.693.726 1.627 1.088 2.802 1.088.897 0 1.639-.196 2.226-.588.588-.391 1.044-1.045 1.37-1.962.082-.2.16-.337.233-.413.073-.075.192-.112.355-.112h.342c.147 0 .278.054.392.162a.444.444 0 0 1 .147.388c-.033.65-.237 1.28-.612 1.888-.375.608-.942 1.108-1.7 1.5-.76.391-1.677.587-2.753.587zm12.926 0c-1.696 0-3.013-.53-3.951-1.587-.938-1.059-1.432-2.43-1.48-4.113l-.025-1.05.024-1.05c.05-1.683.543-3.054 1.48-4.113.939-1.058 2.256-1.587 3.952-1.587 1.697 0 3.014.53 3.952 1.587.938 1.059 1.432 2.43 1.48 4.113.017.167.025.517.025 1.05s-.008.883-.024 1.05c-.05 1.683-.543 3.054-1.48 4.113-.939 1.058-2.256 1.587-3.953 1.587zm0-1.45c1.159 0 2.093-.38 2.802-1.137.71-.759 1.089-1.838 1.138-3.238.016-.167.024-.475.024-.925 0-.45-.008-.758-.024-.925-.049-1.4-.428-2.48-1.138-3.238s-1.643-1.137-2.802-1.137c-1.158 0-2.092.38-2.801 1.137-.71.759-1.089 1.838-1.138 3.238l-.024.925.024.925c.049 1.4.428 2.48 1.138 3.238s1.643 1.137 2.801 1.137zm8.866-14.475a.523.523 0 0 1-.392-.15.547.547 0 0 1-.147-.4v-.95c0-.167.05-.304.147-.412a.502.502 0 0 1 .392-.163h.93a.54.54 0 0 1 .403.162.565.565 0 0 1 .16.413v.95c0 .167-.054.3-.16.4-.106.1-.24.15-.404.15h-.93zm.269 15.675a.523.523 0 0 1-.392-.15.547.547 0 0 1-.147-.4V19.3c0-.167.05-.3.147-.4.098-.1.229-.15.392-.15h.416c.163 0 .293.05.391.15.098.1.147.233.147.4v11.9c0 .167-.049.3-.147.4a.523.523 0 0 1-.391.15h-.416zm5.243 0a.523.523 0 0 1-.391-.15.547.547 0 0 1-.147-.4V19.3c0-.167.05-.3.147-.4.098-.1.228-.15.391-.15h.416c.164 0 .294.05.392.15.098.1.147.233.147.4v1.175c.49-.65 1.048-1.142 1.676-1.475.628-.333 1.44-.5 2.434-.5 1.6 0 2.83.52 3.695 1.563.865 1.041 1.297 2.387 1.297 4.037v7.1c0 .167-.049.3-.147.4a.523.523 0 0 1-.391.15h-.416a.523.523 0 0 1-.392-.15.547.547 0 0 1-.147-.4v-6.975c0-1.35-.322-2.4-.966-3.15-.644-.75-1.57-1.125-2.777-1.125-1.175 0-2.113.38-2.814 1.137-.702.759-1.052 1.805-1.052 3.138V31.2c0 .167-.05.3-.147.4a.523.523 0 0 1-.392.15h-.416zm14.2 0a.56.56 0 0 1-.416-.175.585.585 0 0 1-.172-.425V14.875c0-.183.053-.333.16-.45a.55.55 0 0 1 .428-.175h6.337c1.99 0 3.552.475 4.686 1.425 1.134.95 1.7 2.3 1.7 4.05 0 1.217-.29 2.237-.868 3.063-.58.825-1.383 1.42-2.41 1.787l3.572 6.375c.049.1.073.192.073.275 0 .15-.053.275-.159.375a.505.505 0 0 1-.354.15h-2.227c-.261 0-.46-.058-.6-.175a1.648 1.648 0 0 1-.379-.5l-3.156-5.925H137.4v6a.61.61 0 0 1-.16.425.55.55 0 0 1-.428.175h-2.226zm6.264-9.425c.978 0 1.717-.225 2.214-.675.498-.45.746-1.1.746-1.95 0-.85-.248-1.508-.746-1.975-.497-.467-1.236-.7-2.214-.7h-3.45v5.3h3.45zM154.673 32c-1.501 0-2.684-.504-3.548-1.512-.865-1.009-1.297-2.38-1.297-4.113V19.35c0-.167.057-.308.171-.425a.56.56 0 0 1 .416-.175h2.153c.18 0 .323.054.429.163a.598.598 0 0 1 .159.437v6.875c0 2.067.889 3.1 2.667 3.1.848 0 1.52-.275 2.018-.825.498-.55.747-1.308.747-2.275V19.35c0-.167.057-.308.171-.425a.56.56 0 0 1 .416-.175h2.153c.18 0 .322.054.428.163a.598.598 0 0 1 .16.437v11.8a.61.61 0 0 1-.16.425.55.55 0 0 1-.428.175h-1.982a.56.56 0 0 1-.416-.175.585.585 0 0 1-.171-.425v-1.025c-.914 1.25-2.276 1.875-4.086 1.875zm15.07 0c-1.224 0-2.251-.187-3.083-.563-.832-.375-1.448-.816-1.848-1.325-.4-.508-.6-.945-.6-1.312 0-.167.058-.3.172-.4.114-.1.245-.15.392-.15h1.933a.46.46 0 0 1 .367.175c.065.05.236.2.513.45.278.267.604.475.98.625.374.15.79.225 1.247.225.653 0 1.19-.133 1.615-.4.424-.267.636-.633.636-1.1 0-.35-.094-.633-.281-.85-.188-.217-.526-.412-1.016-.587-.489-.176-1.215-.363-2.177-.563-1.387-.3-2.41-.758-3.071-1.375-.66-.617-.991-1.433-.991-2.45 0-.667.196-1.296.587-1.887.392-.592.975-1.075 1.75-1.45.774-.376 1.7-.563 2.777-.563 1.093 0 2.039.18 2.838.538.8.358 1.407.783 1.823 1.274.416.492.624.93.624 1.313 0 .15-.053.28-.159.387a.512.512 0 0 1-.38.163h-1.81c-.13 0-.27-.058-.416-.175a6.301 6.301 0 0 1-.538-.475 2.717 2.717 0 0 0-.857-.55c-.326-.133-.71-.2-1.15-.2-.603 0-1.072.133-1.407.4a1.278 1.278 0 0 0-.501 1.05c0 .317.081.575.244.775.164.2.482.392.955.575.473.183 1.182.367 2.129.55 1.566.317 2.687.808 3.364 1.475s1.015 1.483 1.015 2.45c0 1.167-.497 2.117-1.492 2.85-.995.733-2.39 1.1-4.184 1.1zm8.585-.25a.56.56 0 0 1-.415-.175.585.585 0 0 1-.172-.425V14.6c0-.183.057-.33.172-.438a.582.582 0 0 1 .415-.162h2.178c.18 0 .322.054.428.162a.598.598 0 0 1 .16.438v5.7c.978-1.2 2.3-1.8 3.963-1.8 1.501 0 2.7.504 3.597 1.512.897 1.009 1.346 2.38 1.346 4.113v7.025a.61.61 0 0 1-.159.425.55.55 0 0 1-.428.175h-2.202a.56.56 0 0 1-.416-.175.585.585 0 0 1-.172-.425v-6.875c0-.983-.232-1.746-.697-2.287-.465-.542-1.138-.813-2.019-.813-.864 0-1.55.275-2.055.825-.506.55-.759 1.308-.759 2.275v6.875a.61.61 0 0 1-.159.425.55.55 0 0 1-.428.175h-2.178z"/>
        <g>
            <mask id="d" fill="#fff">
                <use xlink:href="#a"/>
            </mask>
            <use fill="url(#b)" fill-rule="nonzero" xlink:href="#a"/>
            <circle cx="22.5" cy="16.875" r="22.5" fill="url(#c)" fill-rule="nonzero" mask="url(#d)"/>
        </g>
    </g>
</svg>
