<svg xmlns="http://www.w3.org/2000/svg" width="20" height="14" viewBox="0 0 20 14">
    <g fill="none" fill-rule="nonzero">
        <path fill="#060" d="M6.548.024H1.935C.871.024 0 .895 0 1.992v9.806c0 1.097.871 1.968 1.935 1.968h4.646V.024h-.033z"/>
        <path fill="#F00" d="M18.065.024H6.548v13.742h11.517c1.064 0 1.935-.87 1.935-1.968V1.992C20 .895 19.129.024 18.065.024z"/>
        <path fill="#E20000" d="M18.065.024H6.548V3.96l6.871 5.838 4.646 3.968c1.064 0 1.935-.87 1.935-1.968V1.992C20 .895 19.129.024 18.065.024z"/>
        <path fill="#004F00" d="M6.548.024H1.935L6.548 3.96z"/>
        <path fill="#CE0000" d="M13.452 11.798H6.548v1.968h11.517c1.064 0 1.935-.87 1.935-1.968h-6.548z"/>
        <path fill="#013F01" d="M0 11.798c0 1.097.871 1.968 1.935 1.968h4.646v-1.968H0z"/>
        <path fill="#CE0000" d="M18.065.024H6.548v1.42L13.42 3.54l6.581 2V1.992C20 .895 19.129.024 18.065.024z"/>
        <path fill="#013F01" d="M6.548.024H1.935l4.613 1.42z"/>
        <circle cx="6.581" cy="6.702" r="2.774" fill="#FFF"/>
        <path fill="#F2EFCE" d="M6.58 3.895a2.774 2.774 0 1 1 0 5.549"/>
        <path fill="#C60606" d="M4.71 7.25c0 .484.193.935.548 1.29a1.827 1.827 0 0 0 2.58.033c.323-.323.55-.775.55-1.29V4.83H4.741L4.71 7.25m2.903-1.71V7.38a.887.887 0 0 1-.323.613 1.126 1.126 0 0 1-.774.323c-.29 0-.548-.13-.774-.323a1.126 1.126 0 0 1-.323-.774v-1.71l2.194.032"/>
        <path fill="#F00" d="M4.71 7.25c0 .484.193.935.548 1.29.323.323.774.549 1.29.549v-.71c-.29 0-.548-.129-.774-.323a1.126 1.126 0 0 1-.322-.774v-1.71h1.096v-.741H4.742L4.71 7.25z"/>
        <g fill="#1477EF">
            <path d="M6.323 6.96c0 .064.032.129.064.193a.246.246 0 0 0 .161.065.246.246 0 0 0 .162-.065c.032-.032.064-.097.064-.193v-.355H6.29l.033.355zM6.323 7.798c0 .065.032.13.064.194a.246.246 0 0 0 .161.064.246.246 0 0 0 .162-.064c.064-.065.064-.13.064-.194v-.354H6.29l.033.354zM5.645 6.96c0 .064.032.129.065.193a.246.246 0 0 0 .161.065.246.246 0 0 0 .161-.065c.033-.032.065-.097.065-.193v-.355h-.484l.032.355z"/>
        </g>
        <path fill="#005CB7" d="M7.452 6.96v-.355h-.484v.355c0 .064.032.129.064.193a.246.246 0 0 0 .162.065.246.246 0 0 0 .16-.065c.033-.032.098-.097.098-.193z"/>
        <path fill="#1477EF" d="M6.387 6.315a.246.246 0 0 0 .161.064.246.246 0 0 0 .162-.064c.032-.033.064-.097.064-.194v-.355H6.29v.355a.525.525 0 0 0 .097.194z"/>
        <g fill="#FF0">
            <path d="M4.806 6.316h.945s.055 0 .055-.1c0 0 0-.1-.055-.1h-.222.222l-.056-.6s.056 0 .056-.1c0 0 0-.1-.056-.1h-.833s-.056 0-.056.1c0 0 0 .1.056.1v.6h.222-.222c-.056 0-.056.1-.056.2zm.361-.6c-.08.1-.08.2-.08.3 0-.1.08-.2.08-.3zM5.032 4.987h.13s.032 0 .032-.047v-.095H5.16v.048H5.13v-.048h-.032v.048h-.032v-.048h-.033v.142c-.032 0-.032 0 0 0zM7.186 6.116h-.214.214l-.054-.6s.054 0 .054-.1c0 0 0-.1-.054-.1h-.8s-.053 0-.053.1c0 0 0 .1.053.1l-.053.6h.213-.213s-.053 0-.053.1c0 0 0 .1.053.1h.907c.053 0 .053 0 0-.2.053.1.053 0 0 0zm-.637-.1c0-.1.08-.2.08-.3 0 .1-.08.2-.08.3z"/>
            <path d="M4.839 5.369h.516s.032 0 .032-.05c0 0 0-.05-.032-.05h-.516c-.033.05-.033.05 0 .1-.033 0-.033 0 0 0z"/>
            <path d="M5.161 4.987h-.129V5.316h.13zM5.194 5.128v.188h.129v-.188z"/>
            <path d="M5.226 5.034H5.16v.094s0 .047.033.047h.129s.032 0 .032-.047v-.094h-.129zM4.839 5.134H5s.032 0 .032-.05v-.05H4.84v.1z"/>
            <path d="M4.871 5.316H5l-.032-.188H4.87zM6.29 5.369h.516s.033 0 .033-.05c0 0 0-.05-.033-.05H6.29c0 .05-.032.05 0 .1-.032 0 0 0 0 0zM6.484 4.987h.129s.032 0 .032-.047v-.095h-.032v.048H6.58v-.048h-.033v.048h-.032v-.048h-.064l.032.142c-.032 0 0 0 0 0z"/>
            <path d="M6.613 4.987h-.13v.329h.13zM6.645 5.128v.188h.13v-.188z"/>
            <path d="M6.677 5.034h-.032v.094s0 .047.032.047h.097s.032 0 .032-.047v-.094h-.129zM6.323 5.134h.129s.032 0 .032-.05v-.05h-.161v.1c-.033 0-.033 0 0 0z"/>
            <path d="M6.323 5.128v.188h.129v-.188z"/>
        </g>
        <g fill="#FFE600">
            <path d="M7.715 6.316h.944s.056 0 .056-.1c0 0 0-.1-.056-.1h-.222.222l-.055-.6s.055 0 .055-.1c0 0 0-.1-.055-.1H7.77s-.056 0-.056.1c0 0 0 .1.056.1v.6h.222-.222c-.056 0-.056.1-.056.2zm.36-.6c-.08.1-.08.2-.08.3 0-.1.08-.2.08-.3z"/>
            <path d="M7.768 5.369h.854s.053 0 .053-.05c0 0 0-.05-.053-.05h-.854c-.053.05-.053.05 0 .1-.053 0-.053 0 0 0zM8.088 4.987h.214s.053 0 .053-.047v-.095h-.053v.048h-.054v-.048h-.053v.048h-.053v-.048h-.054v.142c-.053 0-.053 0 0 0z"/>
            <path d="M8.302 4.987h-.214v.329h.214zM8.355 5.128v.188h.213v-.188z"/>
            <path d="M8.355 5.034h-.053v.094s0 .047.053.047h.213s.054 0 .054-.047v-.094h-.267zM7.768 5.128h.267s.053 0 .053-.047v-.094h-.053v.047h-.267v.094zM7.822 5.128l-.054.188h.214v-.188z"/>
        </g>
        <g fill="#FF0">
            <path d="M5.812 7.696s0-.1 0 0l-.278-.1.278.1-.111-.7s.055 0 .055-.1 0-.1-.055-.1h-.834s-.055 0-.055.1 0 .1.055.1v.6h.222-.222s-.055 0-.055.1c0 0 0 .1.055.1l.945-.1c0 .1 0 0 0 0zm-.72-.2c0-.1.08-.2.08-.3 0 .1-.08.2-.08.3z"/>
            <path d="M5.718 6.75h-.853s-.053 0-.053.05c0 0 0 .05.053.05h.853v-.1c0 .05 0 0 0 0zM5.132 6.326v.094s0 .047.053.047h.213s.054 0 .054-.047v-.094h-.054v.047h-.053v-.047h-.053v.047h-.054v-.047h-.106zM5.398 6.467h-.213v.282h.213zM5.665 6.608h-.213v.141h.213zM5.505 6.467h-.053v.094s0 .047.053.047h.213s.054 0 .054-.047v-.094h-.054v.047h-.053v-.047h-.16z"/>
            <path d="M4.865 6.467v.094h.213s.054 0 .054-.047V6.42h-.054v.047h-.053V6.42h-.053v.047h-.054V6.42h-.053v.047zM4.918 6.608v.141h.214l-.054-.141z"/>
        </g>
        <g fill="#FFE600">
            <path d="M7.871 8.185l-.032-.032-.097.065.097.097.064-.065z"/>
            <path d="M7.484 7.96c-.032 0-.032.032-.032.032l.354.355h.033v-.032l-.355-.355z"/>
            <path d="M8.226 8.603l-.611-.611h-.056v.055l-.278.223.167.166-.167-.166h-.055v.055l.666.667h.056v-.056l-.167-.166.167.166.222-.277.056-.056c0 .111 0 .111 0 0 0 .056 0 .056 0 0zm-.667-.195c.056-.08.111-.08.167-.08-.056 0-.111.08-.167.08zM7.774 7.927s0 .033 0 0l.097.13h.032l.032-.033-.032-.032-.032.032-.032-.032.032-.032-.032-.033-.033.033-.032-.033.032-.032-.032-.032v.064z"/>
            <path d="M7.613 8.089l.097.096.161-.129-.097-.096z"/>
            <path d="M7.968 8.153h-.033.033l-.033-.032-.032.032-.032-.032.032-.032-.032-.033-.032.033v.032l.096.097h.033v-.065zM7.677 7.992c.033 0 .033 0 0 0l.065-.032-.032-.033-.033.033-.032-.033.032-.032-.032-.032-.032.032-.032-.032.032-.032-.032-.033v.097l.096.097z"/>
            <path d="M7.613 8.089l.064-.097-.096-.097-.065.097zM8.654 7.437h-.222.222l-.055-.6s.055 0 .055-.1 0-.1-.055-.1h-.834s-.055 0-.055.1 0 .1.055.1v.6h.222-.222s-.055 0-.055.1c0 0 0 .1.055.1h.945c-.056 0 0-.1-.056-.2.056.1 0 0 0 0zm-.663-.1c0-.1.08-.2.08-.3-.08.1-.08.2-.08.3z"/>
            <path d="M8.258 6.605h-.516s-.032 0-.032.05c0 0 0 .05.032.05h.516v-.1c0 .05 0 .05 0 0 0 .05 0 0 0 0zM7.903 6.315v.066s0 .034.032.034h.13s.032 0 .032-.034v-.066h-.032v.033h-.033v-.033H8v.033h-.032v-.033h-.065z"/>
            <path d="M8.032 6.411h-.097l-.032.194h.162zM8.226 6.508h-.13v.1h.13z"/>
            <path d="M8.097 6.411h-.032v.067s0 .033.032.033h.129s.032 0 .032-.033v-.067h-.032v.034h-.032V6.41h-.097zM7.774 6.412h-.032v.067h.129s.032 0 .032-.033v-.067h-.032v.033h-.032V6.38l-.065.033zM7.742 6.508v.1h.129v-.1z"/>
        </g>
        <g fill="#FF0">
            <path d="M5.733 8.042l-.126-.12-.084.12.084.12zM6.312 8.318c-.055 0-.055 0 0 0l-.222.158.222-.158-.278-.21v-.053H5.98v-.053h-.056l-.61.58v.104l.221.264.167-.158-.167.158v.052h.056l.667-.631c.055 0 .055 0 .055-.053zm-.663.263c0 .053 0 .105.08.158 0-.053-.08-.105-.08-.158zM5.186 8.042l.042.04h.042l.126-.12v-.04l-.084-.04.042.04-.042.04-.042-.04-.042.04.042.04-.042.04h-.042zM5.396 8.002l-.126.12.169.16.126-.12zM5.48 7.922v.04-.04l-.041.04.042.04h.042l.126-.12v-.04l-.042-.04-.084.08.042.04-.042.04-.042-.04zM5.312 8.202l-.042-.04-.042.04.042.04-.042.04-.042-.08v.04l.042.04h-.042l-.042-.04-.042.04.042.04h.042l.126-.12zM5.439 8.322l-.127-.08-.126.08.126.12z"/>
        </g>
        <path fill="#FFE600" d="M6.548 3.734a3.166 3.166 0 0 0-3.16 3.161 3.166 3.166 0 0 0 3.16 3.161 3.166 3.166 0 0 0 3.162-3.16c0-1.743-1.452-3.162-3.162-3.162zm1.904 1V7.25c0 .516-.226 1-.549 1.323a1.848 1.848 0 0 1-1.355.548c-.516 0-1-.226-1.322-.548a1.827 1.827 0 0 1-.549-1.323V4.734h3.775z"/>
        <path fill="#FF0" d="M3.387 6.895a3.166 3.166 0 0 0 3.161 3.161v-.903c-.516 0-1-.226-1.322-.548a1.827 1.827 0 0 1-.549-1.323V4.766h1.904v-.968a3.08 3.08 0 0 0-3.194 3.097z"/>
        <g fill="#005CB7">
            <path d="M6.59 7.218c.228 0 .457-.033.685-.065.114-.032.229-.097.229-.193v-.355h-.915v.613zM6.59 6.411c.228 0 .457-.032.685-.064.229-.032.229-.097.229-.194v-.355h-.915v.613zM6.59 8.056c.228 0 .457-.032.685-.064.229-.032.229-.097.229-.194v-.354h-.915v.612z"/>
        </g>
    </g>
</svg>
